<?xml version="1.0" encoding="UTF-8" standalone="no"?>
<!-- Created with Inkscape (http://www.inkscape.org/) -->

<svg
   xmlns:osb="http://www.openswatchbook.org/uri/2009/osb"
   xmlns:dc="http://purl.org/dc/elements/1.1/"
   xmlns:cc="http://creativecommons.org/ns#"
   xmlns:rdf="http://www.w3.org/1999/02/22-rdf-syntax-ns#"
   xmlns:svg="http://www.w3.org/2000/svg"
   xmlns="http://www.w3.org/2000/svg"
   xmlns:xlink="http://www.w3.org/1999/xlink"
   xmlns:sodipodi="http://sodipodi.sourceforge.net/DTD/sodipodi-0.dtd"
   xmlns:inkscape="http://www.inkscape.org/namespaces/inkscape"
   width="744.09448"
   height="1052.3622"
   id="svg2"
   version="1.1"
   inkscape:version="0.48.2 r9819"
   sodipodi:docname="7-1-1 Probability review.svg">
  <defs
     id="defs4">
    <linearGradient
       id="linearGradient4993"
       osb:paint="solid">
      <stop
         style="stop-color:#9d9def;stop-opacity:1;"
         offset="0"
         id="stop4995" />
    </linearGradient>
    <linearGradient
       id="linearGradient4983"
       osb:paint="solid">
      <stop
         style="stop-color:#000000;stop-opacity:1;"
         offset="0"
         id="stop4985" />
    </linearGradient>
    <linearGradient
       id="linearGradient4535"
       osb:paint="solid">
      <stop
         style="stop-color:#8b8b8b;stop-opacity:1;"
         offset="0"
         id="stop4537" />
    </linearGradient>
    <linearGradient
       id="linearGradient4525">
      <stop
         style="stop-color:#caa8c7;stop-opacity:1;"
         offset="0"
         id="stop4527" />
    </linearGradient>
    <linearGradient
       id="linearGradient4519"
       osb:paint="solid">
      <stop
         style="stop-color:#a40000;stop-opacity:1;"
         offset="0"
         id="stop4521" />
    </linearGradient>
    <linearGradient
       id="linearGradient4513"
       osb:paint="solid">
      <stop
         style="stop-color:#c2c2c2;stop-opacity:1;"
         offset="0"
         id="stop4515" />
    </linearGradient>
    <linearGradient
       id="linearGradient4507"
       osb:paint="solid">
      <stop
         style="stop-color:#c173b3;stop-opacity:1;"
         offset="0"
         id="stop4509" />
    </linearGradient>
    <linearGradient
       id="linearGradient4501"
       osb:paint="solid">
      <stop
         style="stop-color:#c17d11;stop-opacity:1;"
         offset="0"
         id="stop4503" />
    </linearGradient>
    <linearGradient
       id="linearGradient4495"
       osb:paint="solid">
      <stop
         style="stop-color:#63bc36;stop-opacity:1;"
         offset="0"
         id="stop4497" />
    </linearGradient>
    <linearGradient
       id="linearGradient4489"
       osb:paint="solid">
      <stop
         style="stop-color:#6666cc;stop-opacity:1;"
         offset="0"
         id="stop4491" />
    </linearGradient>
    <linearGradient
       id="linearGradient4483"
       osb:paint="solid">
      <stop
         style="stop-color:#0099ff;stop-opacity:1;"
         offset="0"
         id="stop4485" />
    </linearGradient>
    <linearGradient
       id="linearGradient4477"
       osb:paint="solid">
      <stop
         style="stop-color:#ff9933;stop-opacity:1;"
         offset="0"
         id="stop4479" />
    </linearGradient>
    <linearGradient
       id="linearGradient4471"
       osb:paint="solid">
      <stop
         style="stop-color:#009900;stop-opacity:1;"
         offset="0"
         id="stop4473" />
    </linearGradient>
    <linearGradient
       id="linearGradient4465"
       osb:paint="solid">
      <stop
         style="stop-color:#003399;stop-opacity:1;"
         offset="0"
         id="stop4467" />
    </linearGradient>
    <linearGradient
       id="linearGradient4459"
       osb:paint="solid">
      <stop
         style="stop-color:#ff3300;stop-opacity:1;"
         offset="0"
         id="stop4461" />
    </linearGradient>
    <linearGradient
       id="linearGradient4453"
       osb:paint="solid">
      <stop
         style="stop-color:#ffffff;stop-opacity:1;"
         offset="0"
         id="stop4455" />
    </linearGradient>
    <linearGradient
       id="linearGradient8973"
       xlink:href="#linearGradient8955">
      <stop
         style="stop-color:#333366;stop-opacity:1;"
         offset="0"
         id="stop8975" />
    </linearGradient>
    <linearGradient
       id="linearGradient8967">
      <stop
         style="stop-color:#000000;stop-opacity:1;"
         offset="0"
         id="stop8969" />
    </linearGradient>
    <linearGradient
       id="linearGradient8961">
      <stop
         style="stop-color:#000000;stop-opacity:1;"
         offset="0"
         id="stop8963" />
    </linearGradient>
    <linearGradient
       id="linearGradient8955">
      <stop
         style="stop-color:#990000;stop-opacity:1;"
         offset="0"
         id="stop8957" />
    </linearGradient>
    <linearGradient
       id="linearGradient8949">
      <stop
         style="stop-color:#ff3300;stop-opacity:1;"
         offset="0"
         id="stop8951" />
    </linearGradient>
    <linearGradient
       id="linearGradient8943">
      <stop
         style="stop-color:#a6a6a6;stop-opacity:1;"
         offset="0"
         id="stop8945" />
    </linearGradient>
    <linearGradient
       id="linearGradient8935">
      <stop
         style="stop-color:#8d8d8d;stop-opacity:1;"
         offset="0"
         id="stop8937" />
    </linearGradient>
    <linearGradient
       id="linearGradient8929">
      <stop
         style="stop-color:#000000;stop-opacity:1;"
         offset="0"
         id="stop8931" />
    </linearGradient>
  </defs>
  <sodipodi:namedview
     id="base"
     pagecolor="#ffffff"
     bordercolor="#666666"
     borderopacity="1.0"
     inkscape:pageopacity="0.0"
     inkscape:pageshadow="2"
     inkscape:zoom="2"
     inkscape:cx="163.66465"
     inkscape:cy="912.0593"
     inkscape:document-units="px"
     inkscape:current-layer="layer1"
     showgrid="true"
     inkscape:snap-global="false"
     inkscape:window-width="1279"
     inkscape:window-height="755"
     inkscape:window-x="0"
     inkscape:window-y="0"
     inkscape:window-maximized="0"
     showguides="true"
     inkscape:guide-bbox="true">
    <inkscape:grid
       type="xygrid"
       id="grid2985"
       units="cm"
       empspacing="10"
       visible="true"
       enabled="true"
       snapvisiblegridlinesonly="true"
       spacingx="1cm"
       spacingy="1cm"
       originx="0cm"
       originy="0cm" />
  </sodipodi:namedview>
  <metadata
     id="metadata7">
    <rdf:RDF>
      <cc:Work
         rdf:about="">
        <dc:format>image/svg+xml</dc:format>
        <dc:type
           rdf:resource="http://purl.org/dc/dcmitype/StillImage" />
        <dc:title></dc:title>
      </cc:Work>
    </rdf:RDF>
  </metadata>
  <g
     inkscape:label="Layer 1"
     inkscape:groupmode="layer"
     id="layer1">
    <path
       inkscape:connector-curvature="0"
       d="m 20.80532,40.076471 c 0.652583,110.141889 0.694831,221.504969 0.798726,332.343229 0.118408,146.13371 0.081,292.29403 0.01802,438.43446 -0.04018,55.94887 -0.091,111.89933 -0.157884,167.83962 -0.01802,10.18513 -0.02508,20.38058 -0.05554,30.55552 -1.421132,52.317 0.647112,77.1943 2.068244,24.8779 l 0,0 c -0.02508,-10.6162 -0.03612,-21.2479 -0.05252,-31.8729 C 23.348055,931.84921 23.315718,861.43334 23.273319,791.01716 23.197782,645.37819 23.140898,499.73441 23.099196,354.0887 23.04582,240.21499 23.054685,126.13231 22.669755,12.491435 21.093966,-34.605585 19.232058,-7.0212981 20.807829,40.076471 z"
       id="path7723"
       style="fill:#aaaaaa;fill-opacity:0.96862744999999995;fill-rule:nonzero;stroke:none" />
    <path
       style="fill:#cccccf;fill-opacity:0.96862745;fill-rule:nonzero;stroke:none"
       id="path7731"
       d="m 722.73402,40.498441 c 0.65258,109.742649 0.69484,220.702109 0.79876,331.138589 0.11834,145.60405 0.0811,291.2346 0.018,436.84531 -0.0406,55.74607 -0.0906,111.49372 -0.15796,167.23105 -0.018,10.1486 -0.0254,20.30689 -0.0556,30.44511 -1.42107,52.1272 0.6471,76.9145 2.06826,24.7878 l 0,0 c -0.0254,-10.5778 -0.0358,-21.1709 -0.0528,-31.75755 -0.0764,-70.14993 -0.10864,-140.31057 -0.15098,-210.47152 -0.0754,-145.11108 -0.1325,-290.22695 -0.17418,-435.34474 -0.0538,-113.46097 -0.0444,-227.13014 -0.42946,-340.359099 -1.57572,-46.926299 -3.43766,-19.4420062 -1.86194,27.48505 z"
       inkscape:connector-curvature="0" />
    <path
       style="fill:#565248;fill-opacity:1;fill-rule:nonzero;stroke:none"
       id="path10032"
       d="m 57.852748,31.18918 c 0.01064,-0.713193 0.09457,-1.490597 -0.02854,-2.172325 0.769841,0.404423 1.664105,0.630476 2.309523,1.213269 0.2047,0.184838 -0.03796,0.550337 -0.05132,0.825816 -0.12407,2.557114 -0.150533,5.11485 -0.134886,7.674349 -0.01809,4.781812 0.444267,9.545255 0.919404,14.297892 -0.573636,1.851496 -2.542366,1.241538 -1.968729,-0.609958 l 0,0 c -0.306878,-4.770097 -0.679655,-9.537957 -0.759064,-14.319416 -0.07476,-2.606808 -0.0994,-5.217008 -0.221541,-7.822249 -0.01349,-0.287783 -0.334722,-0.810931 -0.05132,-0.862772 0.771497,-0.141126 1.539682,0.299794 2.309523,0.44969 -0.131233,0.632197 -0.03287,1.456445 -0.02854,2.151776 -0.776881,2.157872 -3.071386,1.331799 -2.294504,-0.826072 z"
       inkscape:connector-curvature="0" />
    <path
       style="fill:#565248;fill-opacity:1;fill-rule:nonzero;stroke:none"
       id="path10034"
       d="m 57.862364,30.605987 c 0.212472,-2.166092 1.633139,-3.766349 3.184788,-5.154022 2.197215,-1.573265 4.889553,-2.60059 7.636068,-2.328498 0.565752,0.05605 1.113916,0.228167 1.670874,0.34225 3.115489,1.181118 5.611759,3.851901 5.983827,7.250993 0.06417,0.586203 0.0038,1.179401 0.0057,1.769102 -0.361768,3.066455 -1.764076,5.758768 -4.0932,7.790822 -0.443764,0.387163 -0.934854,0.716473 -1.402281,1.07471 -2.548185,1.618532 -4.837049,2.303259 -7.817512,1.803672 -1.035081,-0.32498 -0.5609,-0.139915 -1.430912,-0.533257 -2.217642,0.122106 -2.347479,-2.235953 -0.129837,-2.35806 l 0,0 c 0.566261,0.503894 0.233813,0.266285 1.025561,0.671597 2.558727,0.784609 4.706879,0.213308 6.971446,-1.166777 0.432409,-0.32251 0.887628,-0.616504 1.297225,-0.967531 2.109837,-1.80814 3.353814,-4.234566 3.583132,-7.002723 -0.07054,-1.386634 0.02886,-1.680823 -0.495458,-2.992463 -0.183993,-0.460283 -0.504455,-0.857117 -0.694635,-1.314878 -0.02851,-0.06863 0.106745,-0.158011 0.05904,-0.214996 -0.853913,-1.019997 -1.250323,-1.107238 -2.382724,-1.740994 -0.474425,-0.14155 -0.934915,-0.343289 -1.423275,-0.42465 -2.447159,-0.407698 -4.880943,0.527861 -6.838918,1.926905 -1.277444,1.171017 -2.519898,2.534848 -2.433644,4.387946 -0.77037,2.139784 -3.045642,1.320636 -2.275272,-0.819148 z"
       inkscape:connector-curvature="0" />
    <path
       style="fill:#565248;fill-opacity:1;fill-rule:nonzero;stroke:none"
       id="path10036"
       d="m 73.714011,46.986362 c 0.22364,1.888878 0.545485,3.761832 0.904455,5.629522 0.251737,0.676843 0.405862,3.415307 0.872519,3.840725 -0.741238,-0.391971 -1.589719,-0.627165 -2.223713,-1.175915 -0.176905,-0.153119 0.02761,-0.467462 0.05685,-0.699595 0.21758,-1.727344 0.626719,-3.371286 1.189591,-5.015601 1.04327,-2.661183 2.521861,-4.778649 4.964188,-6.29369 2.054142,-0.761263 2.931341,-0.02456 4.210509,1.843568 0.189284,0.276437 0.183082,0.644565 0.274624,0.966848 -0.321305,2.136437 -2.593018,1.794788 -2.271714,-0.341649 l 0,0 c -0.667547,-1.318464 -0.256956,-0.273519 0.426491,-0.07515 0.462193,0.134151 -1.481859,-1.555169 -1.272567,-0.580869 -2.263454,1.155045 -3.576899,3.224743 -4.457072,5.553941 -0.398952,1.275994 -0.685937,2.495376 -0.830316,3.826733 -0.0353,0.32546 -0.05779,0.65223 -0.07978,0.978858 -0.01839,0.273055 0.223302,0.750293 -0.04135,0.819977 -0.765917,0.201669 -1.579217,-0.123579 -2.368825,-0.185368 -0.119705,-1.344599 -0.41413,-2.670055 -0.620862,-4.002174 -0.350762,-1.911982 -0.666634,-3.83102 -1.074396,-5.731938 0.603559,-2.201943 2.944926,-1.560168 2.341367,0.641775 z"
       inkscape:connector-curvature="0" />
    <path
       style="fill:#565248;fill-opacity:1;fill-rule:nonzero;stroke:none"
       id="path10038"
       d="m 86.186957,51.427025 c -0.896961,1.171266 -1.02742,2.203533 -0.238126,3.46713 0.162447,0.161247 0.490308,0.712608 0.487342,0.48374 -0.0034,-0.260016 -0.655726,-0.408355 -0.488951,-0.607868 0.16529,-0.197737 0.422836,0.301046 0.658809,0.404666 0.878622,0.385821 1.679289,0.283594 2.584722,0.109307 1.503818,-0.579425 2.748096,-1.814551 2.873474,-3.499664 0.02232,-0.299978 -0.04339,-0.600047 -0.06508,-0.900071 -0.254177,-0.802948 -0.78247,-1.791631 -1.640794,-2.120273 -0.146517,-0.0561 0.407353,0.413231 0.251202,0.398028 -0.328491,-0.03198 -0.574608,-0.327483 -0.877321,-0.45899 -0.273931,-0.119002 -0.565089,-0.193583 -0.847633,-0.290375 -0.62435,-0.155929 -1.189011,-0.166803 -1.786298,0.0525 -1.882117,1.175426 -3.131969,-0.825863 -1.249852,-2.001289 l 0,0 c 0.869832,-0.328792 1.657419,-0.460348 2.595291,-0.278115 0.557238,0.158599 1.609546,0.416063 2.092417,0.735313 1.307389,0.864378 2.834422,2.007941 3.365704,3.584943 0.124098,0.36836 0.144673,0.763824 0.21701,1.145736 -0.02398,0.394121 -0.002,0.793755 -0.07193,1.182365 -0.377601,2.098574 -1.901692,3.637421 -3.80721,4.446116 -0.379359,0.09603 -0.750849,0.231614 -1.138077,0.288085 -2.358413,0.343936 -4.336594,-0.834477 -5.448289,-2.952147 -0.610207,-1.941241 -0.38506,-3.105612 0.7264,-4.798894 1.513898,-1.699576 3.321088,-0.08982 1.80719,1.609756 z"
       inkscape:connector-curvature="0" />
    <path
       style="fill:#565248;fill-opacity:1;fill-rule:nonzero;stroke:none"
       id="path10040"
       d="m 96.402706,49.78373 c 1.69038,-1.298558 3.267239,-2.740855 4.787344,-4.23304 2.28056,-2.223929 4.05146,-4.852869 5.45766,-7.69503 0.85497,-1.985585 1.20002,-3.736932 0.39954,-5.773702 0.37808,0.27731 -1.03168,-1.241269 -0.80414,-0.907297 0.19334,0.28377 0.52907,0.464465 0.68233,0.771737 0.0711,0.142536 -0.26476,-0.184309 -0.41529,-0.236361 -0.41563,-0.143716 -0.54028,-0.03488 -0.95195,0.08231 -2.45485,1.79874 -3.28497,5.062358 -4.12105,7.831928 -0.82446,3.503631 -1.646857,7.126278 -1.39715,10.754592 0.0365,0.529984 0.13929,1.053306 0.20893,1.579959 0.0486,0.396584 1.05137,2.947673 1.74187,2.740525 0.24852,-0.07456 -0.53337,-0.395682 -0.44406,-0.639285 0.0738,-0.201366 0.41485,0.132125 0.62931,0.134021 0.22515,0.002 0.44283,-0.08173 0.66424,-0.122591 1.41202,-0.778479 2.20255,-1.850614 1.54866,-3.445844 0.25088,0.202345 -1.00452,-1.168177 -0.86336,-0.801693 0.10762,0.279413 0.52504,0.37387 0.60745,0.661726 0.054,0.18863 -0.32658,-0.220631 -0.50471,-0.302886 -0.43793,-0.202214 -0.59189,-0.186716 -1.05066,-0.242511 -0.4966,0.06987 -0.26443,3.71e-4 -0.69936,0.198811 -1.83319,1.283635 -3.198104,-0.665633 -1.36491,-1.949268 l 0,0 c 0.81574,-0.411523 0.38199,-0.248403 1.3057,-0.477398 2.33201,0.04125 4.01762,1.158791 4.83794,3.426984 0.0343,0.298137 0.109,0.594368 0.10292,0.894411 -0.0369,1.821719 -1.31384,3.238098 -2.83806,4.05708 -0.56191,0.155956 -1.53689,0.544066 -2.15146,0.246776 -2.188234,-1.058531 -3.175084,-2.699477 -3.546651,-4.986304 -0.288326,-4.287938 0.431664,-8.525313 1.487656,-12.676842 0.919565,-3.19867 1.832095,-6.782869 4.634765,-8.867855 0.29432,-0.115492 0.5751,-0.274452 0.88296,-0.346476 1.9651,-0.459752 3.46231,1.378997 4.09163,3.040053 0.57875,2.432435 0.14754,4.320233 -0.90435,6.577234 -1.52318,2.91412 -3.37321,5.632965 -5.70313,7.971119 -1.52209,1.555871 -3.105822,3.04564 -4.68275,4.545404 -1.702484,1.530928 -3.330349,-0.279355 -1.627864,-1.810283 z"
       inkscape:connector-curvature="0" />
    <path
       style="fill:#565248;fill-opacity:1;fill-rule:nonzero;stroke:none"
       id="path10042"
       d="m 115.44741,50.462128 c -1.43662,-0.571136 -2.75534,-0.20015 -4.06167,0.495916 -1.32946,0.974363 -2.51085,2.287761 -2.55043,4.006846 0.057,0.166692 0.0701,0.355721 0.17114,0.500075 0.0872,0.124692 0.44161,0.403484 0.36792,0.270328 -0.18622,-0.33651 -0.58228,-0.543282 -0.71809,-0.903104 -0.0544,-0.14407 0.28219,0.13932 0.43545,0.154278 0.4932,0.04814 0.88273,-0.159446 1.33479,-0.320096 1.63016,-0.870153 2.78169,-2.32307 3.64446,-3.923739 0.055,-0.157106 0.25374,-0.586839 0.19474,-0.811879 -0.0116,-0.0444 -0.14908,-0.09989 -0.12285,-0.06221 0.35935,0.51615 0.66035,1.09303 1.13098,1.510225 0.2602,0.230653 0.54223,-0.353797 0.373,-0.0357 -0.47662,0.987249 -0.72686,2.086888 -0.53787,3.170703 -0.40298,-0.177401 0.81874,1.271373 0.63861,0.938584 -0.14746,-0.272419 -0.53316,-0.422661 -0.57571,-0.729489 -0.0262,-0.188819 0.3249,0.213892 0.51033,0.258085 0.68077,0.162245 1.12852,-0.0461 1.80783,-0.203898 3.81219,-1.421687 6.41459,-4.561437 8.75812,-7.737979 1.67834,-2.656429 3.39021,-5.540116 3.71764,-8.739173 0.0427,-0.417355 0.0122,-0.838982 0.0183,-1.258473 -0.13654,-0.711935 -0.10084,-1.152278 -0.60784,-1.696162 -0.14803,-0.1588 -0.60074,-0.558469 -0.55105,-0.347137 0.0807,0.343091 0.61376,0.474611 0.66306,0.82359 0.0253,0.179134 -0.36995,-0.02052 -0.54147,0.03699 -0.29126,0.09766 -0.54699,0.279788 -0.82049,0.419683 -2.96934,2.400765 -4.17144,6.095174 -5.09828,9.659886 -0.50073,2.787795 -0.69516,5.969165 1.22547,8.306941 0.28186,0.343087 0.6421,0.613461 0.96315,0.920192 0.0104,-0.0889 -0.0572,-0.281691 0.0311,-0.26669 0.40735,0.06926 0.75098,0.353346 1.14819,0.467179 1.62311,0.465158 2.63128,0.188465 3.98258,-0.697607 0.74718,-0.733164 1.05914,-1.72149 0.38463,-2.634907 -0.15529,-0.210284 -0.31182,-0.473624 -0.56304,-0.545881 -0.18779,-0.05401 0.22384,0.320342 0.33576,0.480513 -1.24173,-0.872068 -2.47141,-1.270176 -3.93324,-0.769264 -1.84305,1.141572 -3.05691,-0.818179 -1.21385,-1.959751 l 0,0 c 0.31269,-0.119532 0.61189,-0.283331 0.93808,-0.358598 1.46854,-0.338852 2.96446,0.164735 4.25433,0.827666 0.63273,0.59294 1.32281,1.130084 1.8982,1.778818 0.99555,1.122447 0.91847,2.892057 0.10198,4.073206 -0.22051,0.318996 -0.52846,0.567682 -0.79269,0.851522 -0.34761,0.227377 -0.67016,0.498717 -1.04285,0.682131 -1.23554,0.608051 -2.63585,0.696101 -3.96973,0.416048 -0.48892,-0.102653 -1.00364,-0.183834 -1.4329,-0.439427 -0.82932,-0.493811 -1.52485,-1.183796 -2.28727,-1.775693 -0.31593,-0.395153 -0.67685,-0.758202 -0.94779,-1.185459 -1.72851,-2.725777 -1.43375,-6.091768 -0.83358,-9.102598 1.04825,-3.867058 2.39709,-7.80177 5.50961,-10.513754 0.40738,-0.246556 1.66468,-1.16905 2.30045,-0.961977 2.20295,0.717517 2.89212,2.255682 2.93165,4.318633 -0.0468,0.463781 -0.0612,0.931994 -0.14043,1.391341 -0.57087,3.308302 -2.32475,6.277813 -4.13498,9.043068 -2.4893,3.375542 -5.22532,6.687211 -9.16032,8.415931 -0.94403,0.316062 -1.44836,0.591127 -2.44373,0.550663 -1.79058,-0.07279 -3.00824,-1.796582 -3.26264,-3.427755 -0.0256,-1.417778 0.24151,-2.843256 0.966,-4.080613 0.20097,-0.226898 0.82933,-1.071552 1.25511,-0.822666 1.82389,1.066125 1.49913,1.889471 0.84214,3.204278 -1.1108,1.767257 -2.44008,3.409494 -4.27697,4.464529 -0.61264,0.266924 -2.16668,0.99647 -2.85289,0.592163 -1.55088,-0.913761 -2.09276,-1.566378 -2.0991,-3.14855 0.42201,-2.164625 1.56854,-3.586059 3.31914,-4.888948 1.52195,-0.889042 3.1396,-1.47333 4.91841,-1.054029 2.23188,-0.471553 2.7333,1.901649 0.50141,2.373203 z"
       inkscape:connector-curvature="0" />
    <path
       style="fill:#565248;fill-opacity:1;fill-rule:nonzero;stroke:none"
       id="path10044"
       d="m 140.96853,48.729868 c -0.5369,1.662305 -0.76431,3.393231 -0.96234,5.121899 -0.0581,1.361103 -0.0602,0.694062 -7.1e-4,2.001135 -0.70009,2.010332 -2.83771,1.26592 -2.13762,-0.744413 l 0,0 c 0.007,-1.412722 -0.02,-0.697219 0.0867,-2.146345 0.21517,-1.829454 0.46801,-3.655459 0.9036,-5.447718 1.14306,-1.984706 3.25344,-0.769264 2.11037,1.215442 z"
       inkscape:connector-curvature="0" />
    <path
       style="fill:#565248;fill-opacity:1;fill-rule:nonzero;stroke:none"
       id="path10048"
       d="m 148.20725,46.709231 c 2.45743,-0.886547 4.64197,-2.312888 6.66926,-3.934111 1.62834,-1.558924 3.48266,-3.372884 3.9086,-5.69944 0.0521,-0.284475 0.0307,-0.57759 0.0461,-0.866384 0.57572,0.23881 -0.79018,-1.402217 -0.66264,-1.017955 0.1049,0.316043 0.58287,0.477729 0.58371,0.810725 5e-4,0.19878 -0.38329,-0.13575 -0.58199,-0.130056 -0.82977,0.02378 -1.24181,0.345087 -1.98988,0.712126 -2.38783,1.641833 -4.04668,4.118438 -5.04874,6.817448 -0.2022,0.544608 -0.33166,1.113524 -0.49748,1.670287 -0.0812,0.535744 -0.19996,1.067129 -0.2436,1.607231 -0.11806,1.461166 0.0311,3.695824 1.44125,4.599148 0.14635,0.09375 -0.15788,-0.309687 -0.23682,-0.464531 2.31584,1.083244 4.56449,-0.176319 6.55389,-1.370724 0.75026,-0.525571 1.52878,-1.060662 2.11325,-1.779424 0.0895,-0.11009 0.17683,-0.227932 0.22484,-0.361458 0.0113,-0.03144 -0.0893,-0.09926 -0.0686,-0.07304 0.4771,0.604335 0.95869,1.205109 1.43803,1.807663 -1.00846,1.027109 -1.68288,2.410081 -1.76111,3.84904 0.047,0.178549 0.0637,0.367961 0.14092,0.535646 0.0688,0.149306 0.38686,0.53171 0.28971,0.399096 -0.77517,-1.058222 -1.00041,-1.143227 -0.3045,-0.685634 2.17025,-0.38217 2.57662,1.925494 0.40637,2.307664 l 0,0 c -0.29239,-0.06529 -0.64159,-0.01078 -0.87717,-0.195867 -1.38217,-1.085951 -1.80468,-1.758264 -1.77799,-3.296062 0.32089,-1.763346 1.10265,-3.416614 2.33734,-4.731775 0.73915,0.415215 1.55938,0.711148 2.21745,1.245646 0.11267,0.09152 -0.13737,0.256992 -0.22409,0.373394 -0.73471,0.986082 -1.82661,1.647201 -2.81223,2.344193 -2.42361,1.439245 -4.98919,2.761439 -7.86424,1.871071 -0.67302,-0.588928 -1.40849,-1.11335 -2.01908,-1.766784 -1.68394,-1.802086 -1.25104,-5.082491 -0.78081,-7.231457 1.23345,-3.762723 2.83814,-6.800658 6.06864,-9.229714 0.7457,-0.424843 2.73164,-1.635552 3.69515,-1.137196 1.70539,0.882077 2.27359,1.744834 2.31802,3.436432 -0.0663,0.355504 -0.0988,0.718988 -0.19887,1.066513 -0.71208,2.474085 -2.60042,4.435065 -4.4231,6.147406 -2.11241,1.710576 -4.37138,3.190562 -6.80082,4.416818 -1.92411,1.202585 -3.20284,-0.84335 -1.27874,-2.045936 z"
       inkscape:connector-curvature="0" />
    <path
       style="fill:#565248;fill-opacity:1;fill-rule:nonzero;stroke:none"
       id="path10050"
       d="m 177.06569,32.493462 c -1.53723,-0.213084 -2.09557,1.823186 -2.51273,2.897913 -1.10909,3.683469 -1.43462,7.551468 -1.5989,11.377902 0.0272,2.357419 -0.1604,4.748513 0.12998,7.096949 -0.83443,-0.256013 -1.73573,-0.352518 -2.5033,-0.768038 -0.20942,-0.113368 -0.12441,-0.459746 -0.18843,-0.689115 -0.39367,-1.410239 -0.94386,-2.744232 -1.53985,-4.079998 -0.44287,-0.838231 -0.89699,-1.708276 -1.50926,-2.441307 -0.13922,-0.166679 -0.60038,-0.626018 -0.4656,-0.45573 0.79157,0.862762 0.98607,1.136523 0.6911,0.733047 0.25973,0.004 0.41335,-0.236326 0.63909,-0.305618 0.0985,-0.03024 0.34883,0.103943 0.30907,0.0089 -0.12604,-0.301497 -0.67523,-0.435224 -0.62212,-0.757664 0.0447,-0.27129 0.42784,0.349615 0.66699,0.485262 0.31448,0.17837 0.65723,0.301481 0.98585,0.452221 2.52937,0.869434 5.20764,1.144481 7.85685,1.381823 1.85428,0.197712 2.5377,0.135882 3.38745,2.301603 0.0683,0.174078 -0.43685,1.250823 -0.49898,1.393112 -0.19618,0.677359 -0.95536,1.549018 -0.70994,2.310916 0.0755,0.234243 0.38265,0.329678 0.5641,0.417744 -0.27046,-0.302205 -0.64612,-0.536255 -0.81138,-0.906615 -0.0649,-0.145446 0.30271,0.113785 0.46171,0.122972 0.22404,0.01295 0.4517,-0.0089 0.67078,-0.05754 0.9225,-0.204688 1.70519,-0.749409 2.47597,-1.26152 1.20837,-0.665512 2.01045,-1.934015 3.14021,-2.6657 0.55703,0.600423 1.25206,1.097561 1.67108,1.801268 0.11131,0.186923 -0.16302,0.40354 -0.23622,0.608408 -0.10046,0.281172 -0.20124,0.562621 -0.28464,0.849319 -0.39862,1.370256 -0.60533,2.770007 -0.81881,4.1777 -0.52258,3.606056 -0.58702,7.243881 -0.55421,10.879483 -0.10441,2.161782 0.48741,4.44059 -0.25078,6.525248 -1.2934,1.787467 -2.96607,1.033779 -4.49793,0.03841 -1.82634,-1.50427 -3.47891,-3.394518 -3.75698,-5.834524 -0.046,-0.403571 -0.009,-0.812321 -0.0131,-1.218481 0.22377,-2.182628 1.67472,-3.50672 3.23647,-4.866529 1.4273,-1.362472 2.87604,0.155198 1.44874,1.51767 l 0,0 c -1.25383,1.151647 -2.46702,2.246421 -2.55842,4.058282 0.0871,1.04227 0.27441,1.908399 0.80522,2.829015 0.1683,0.291887 0.47126,0.513485 0.56767,0.836324 0.0476,0.159196 -0.48925,-0.433914 -0.40476,-0.290855 0.15857,0.268509 0.42493,0.456513 0.6374,0.68477 0.51172,0.419765 1.80256,1.65441 2.50507,1.045986 0.66843,-1.860307 0.0857,-4.108903 0.30024,-6.038594 0.0333,-3.6844 0.15733,-7.368098 0.61824,-11.028022 0.19328,-1.484332 0.40163,-2.949217 0.72878,-4.410717 0.0668,-0.298427 0.15109,-0.59282 0.21528,-0.89182 0.0333,-0.155098 -0.065,-0.540361 0.077,-0.469628 0.65834,0.327951 1.15325,0.913146 1.72988,1.369719 0.038,-0.0633 0.18502,-0.209677 0.1139,-0.18991 -0.13256,0.03684 -1.94215,1.625744 -2.14917,1.786348 -0.27901,0.216445 -0.56291,0.426517 -0.84436,0.639776 -1.17579,0.791844 -2.39724,1.636771 -3.84812,1.797411 -0.30489,0.03376 -0.64664,0.145727 -0.92025,0.007 -0.6857,-0.347645 -1.22087,-0.934687 -1.83131,-1.402031 -0.0997,-0.218961 -0.23862,-0.424029 -0.29918,-0.656884 -0.30423,-1.169714 0.42787,-2.295811 0.81624,-3.343907 0.38419,-1.174356 -0.24481,-0.799188 1.24528,0.374229 0.0842,0.06633 0.0133,-0.242946 -0.0664,-0.314715 -0.2572,-0.231768 -1.17122,-0.347604 -1.39325,-0.390632 -2.7383,-0.330378 -5.49415,-0.624178 -8.17036,-1.316857 -0.38968,-0.12449 -1.71697,-0.494479 -2.09651,-0.804266 -0.83785,-0.683868 -2.65537,-2.029745 -1.45223,-3.303829 0.17255,-0.182726 0.45191,-0.220064 0.67786,-0.330096 0.20448,0.02511 0.44483,-0.04303 0.61344,0.07534 1.67122,1.173327 2.5935,2.905549 3.4112,4.709148 0.46418,1.088897 0.90195,2.182895 1.32578,3.288009 0.11012,0.287125 0.20825,0.57928 0.33303,0.860346 0.0804,0.181163 0.47661,0.489163 0.28145,0.523812 -0.71923,0.127693 -1.45568,-0.124078 -2.18353,-0.186117 0.19426,-2.343599 0.0701,-4.706706 0.25304,-7.051783 0.24193,-3.947107 0.5563,-7.937513 1.6242,-11.759899 0.67302,-1.854511 1.50216,-3.871237 3.72405,-4.123631 2.20933,-0.612522 2.86063,1.736695 0.65131,2.349217 z"
       inkscape:connector-curvature="0" />
    <path
       style="fill:#565248;fill-opacity:1;fill-rule:nonzero;stroke:none"
       id="path10052"
       d="m 210.97846,35.245472 c -0.79677,2.812518 -1.06666,5.749954 -1.33801,8.651221 -0.24928,3.01189 -0.38447,6.032899 -0.42919,9.05454 -0.17709,1.585811 -0.54056,1.634748 -2.50862,-0.29861 -0.20416,-0.200562 0.002,-0.572391 6e-4,-0.858582 -0.009,-1.942437 -0.0274,-0.507185 0.029,-2.763802 0.14036,-4.219341 0.71505,-8.404253 1.87173,-12.463454 0.92571,-2.805168 2.29905,-5.630633 4.91939,-7.221351 0.4158,-0.252417 0.87866,-0.417588 1.31798,-0.626382 0.45592,-0.08577 0.90426,-0.237507 1.36775,-0.257309 1.99869,-0.08539 3.44391,1.185955 4.6213,2.703943 0.58337,0.752135 0.77173,2.181248 0.95363,3.049944 0.31535,3.680055 -1.1447,6.943121 -3.18948,9.897342 -1.32565,1.577886 -2.82924,3.158632 -4.8543,3.762676 -1.18986,0.140263 -1.64446,0.02683 -2.33109,-1.574682 -0.19088,-0.445225 0.77567,-0.946016 1.01471,-0.9986 0.20133,-0.04429 0.41145,0.02638 0.61718,0.03956 2.08278,1.087536 3.42821,3.214105 5.02065,4.893998 -0.0616,-0.07368 -0.2607,-0.280105 -0.18494,-0.221037 0.31082,0.242333 0.58697,0.526684 0.89397,0.773839 0.85098,0.685093 0.95352,0.706305 1.8805,1.271013 2.08303,-0.159914 2.25307,2.055009 0.17004,2.214923 l 0,0 c -1.8961,-1.012632 -3.53272,-2.274755 -4.98504,-3.887241 -1.69731,-1.839092 -1.67771,-1.892714 -2.36767,-2.665023 -0.0676,-0.358333 0.48279,-0.693348 0.35528,-0.896706 -1.90921,-3.044844 -1.63397,-1.448777 -1.15714,-1.075413 1.79192,-0.06862 3.13813,-1.811654 4.27362,-2.982559 1.90741,-2.664475 3.23817,-5.64668 2.75328,-9.000424 -0.13468,-0.45461 -0.26936,-0.90922 -0.40404,-1.363829 -0.21652,-0.367974 -0.51178,-0.699818 -0.64958,-1.103921 -0.0336,-0.09863 0.37288,0.158761 0.30142,0.08292 -0.80312,-0.852345 -1.7728,-1.017106 -2.88686,-0.848178 -0.37992,0.151492 -0.77975,0.260375 -1.13977,0.454476 -2.46932,1.331301 -3.67188,4.023097 -4.54049,6.542088 -1.13835,3.971357 -1.70416,8.07639 -1.6317,12.214367 0.04,1.009702 0.0365,1.735558 0.1818,2.713485 0.0338,0.22771 0.38394,0.676948 0.15375,0.673301 -2.29083,-0.03629 -2.15212,-0.278956 -2.00209,-1.021955 0.28355,-2.994081 0.43136,-5.9996 0.69197,-8.995676 0.27007,-3.018283 0.53751,-6.045046 1.08025,-9.0289 1.09092,-2.003387 3.22115,-0.843392 2.13023,1.159995 z"
       inkscape:connector-curvature="0" />
    <path
       style="fill:#565248;fill-opacity:1;fill-rule:nonzero;stroke:none"
       id="path10054"
       d="m 229.05727,47.740137 c 1.4232,-0.654262 2.35019,-1.912417 3.01759,-3.282625 0.24454,-0.700452 0.50631,-1.515193 0.20662,-2.252538 -0.0718,-0.176763 -0.44007,-0.623567 -0.33098,-0.467024 0.6755,0.969331 0.89361,1.041826 0.20734,0.596613 -1.93956,-0.239574 -3.17239,1.493603 -4.05416,2.957898 -0.48913,1.141395 -0.72413,2.429528 0.0293,3.523801 0.15675,0.227683 0.30154,0.524443 0.56549,0.606571 0.20518,0.06384 -0.23461,-0.360077 -0.35192,-0.540115 1.95487,1.148924 3.91496,0.357829 5.71352,-0.671243 0.94725,-0.799705 2.43568,-1.665306 2.65688,-3.010932 -0.0709,0.06617 -0.28016,0.128878 -0.21267,0.198516 0.51071,0.526962 1.20662,0.847764 1.72758,1.364593 0.0617,0.06117 -0.0835,0.152593 -0.11779,0.232405 -0.0647,0.150637 -0.12738,0.302481 -0.17859,0.458198 -0.2089,0.635132 -0.17193,0.607945 -0.26126,1.288012 0.0191,0.224195 0.0136,0.451882 0.0574,0.672585 0.0785,0.395316 0.29909,0.934513 0.54076,1.257396 0.14201,0.189739 0.46592,0.739248 0.50068,0.504812 0.0618,-0.416993 -1.36622,-1.130433 0.15936,-0.252862 1.92836,0.625522 3.12247,-0.252173 4.25216,-1.745935 0.86071,-1.571757 1.09985,-3.334565 0.52175,-5.034137 -0.35626,-0.515181 -1.62477,-1.696737 0.47238,0.446721 -2.2822,0.158579 -2.45082,-2.268129 -0.16862,-2.426708 l 0,0 c 1.18287,1.043031 1.63254,1.162758 1.97475,2.476744 0.35044,2.095482 0.0168,4.155749 -1.08988,5.994199 -1.59234,2.051774 -2.99488,2.997375 -5.67359,2.566966 -0.31021,-0.115682 -0.66279,-0.152415 -0.93061,-0.347047 -1.83672,-1.33481 -2.90427,-2.806212 -2.72283,-5.083003 0.0601,-0.335119 0.64072,-2.878715 1.06592,-2.822899 0.81485,0.106965 1.60152,0.475222 2.2793,0.94002 0.15221,0.10438 -0.0803,0.360281 -0.12047,0.540422 -0.72157,1.520503 -2.03828,2.599169 -3.38597,3.559485 -2.30137,1.329686 -4.42114,2.159449 -7.05256,1.159604 -0.64364,-0.580794 -1.34547,-1.102978 -1.93092,-1.742383 -1.34301,-1.466762 -0.85433,-3.870784 -0.0945,-5.458962 1.31186,-2.099484 2.79873,-3.786036 5.43807,-3.917096 0.30155,0.07377 0.66245,0.02709 0.90463,0.221299 2.15381,1.727107 2.18966,3.165553 1.26724,5.490135 -0.83452,1.597463 -1.90967,3.032917 -3.47603,3.982638 -1.86597,1.32171 -3.27137,-0.662414 -1.40539,-1.984124 z"
       inkscape:connector-curvature="0" />
    <path
       style="fill:#565248;fill-opacity:1;fill-rule:nonzero;stroke:none"
       id="path10056"
       d="m 250.50727,46.47522 c -1.25907,0.849669 -1.69137,2.40634 -1.99171,3.813889 -0.17567,1.093133 -0.10403,2.175389 0.0503,3.262361 -0.62923,2.102013 -2.86434,1.432937 -2.23511,-0.669075 l 0,0 c -0.0742,-1.210678 -0.0699,-2.421667 0.16907,-3.617862 0.42789,-1.740803 1.0309,-3.499816 2.47298,-4.668769 1.76754,-1.443087 3.302,0.436369 1.53447,1.879456 z"
       inkscape:connector-curvature="0" />
    <path
       style="fill:#565248;fill-opacity:1;fill-rule:nonzero;stroke:none"
       id="path10058"
       d="m 248.07481,34.224239 c 0.25075,-0.08997 0.50149,-0.179936 0.75223,-0.269903 1.86132,-1.169073 3.10442,0.810104 1.2431,1.979177 l 0,0 c -0.17946,0.07333 -0.35891,0.14666 -0.53837,0.219991 -1.81438,1.370199 -3.27134,-0.559065 -1.45696,-1.929265 z"
       inkscape:connector-curvature="0" />
    <path
       style="fill:#565248;fill-opacity:1;fill-rule:nonzero;stroke:none"
       id="path10060"
       d="m 259.14725,49.535183 c -0.29436,0.03877 0.55961,0.76286 0.51398,0.701231 -0.23,-0.310575 -0.55711,-0.541879 -0.78098,-0.856898 -0.0898,-0.126416 0.23901,0.19942 0.37128,0.280397 0.13257,0.08116 0.27964,0.135805 0.41946,0.203708 0.84286,0.211435 1.81438,-0.08676 1.96868,-1.026441 -0.0381,-0.09676 -0.0479,-0.210234 -0.11424,-0.290295 -0.0754,-0.09101 -0.35052,-0.303479 -0.29254,-0.200469 0.17903,0.31802 0.5489,0.522475 0.668,0.867441 0.0677,0.196157 -0.31548,-0.274677 -0.49766,-0.374046 -0.61106,-0.3333 -0.86871,-0.307131 -1.56212,-0.414135 -2.01928,-0.06528 -3.71765,0.477074 -5.07551,1.995172 -0.11661,0.20507 -0.27307,0.392139 -0.34981,0.615209 -0.12589,0.365932 -0.0857,0.732612 0.13518,1.050045 0.10398,0.149447 0.46769,0.541747 0.39879,0.373223 -0.25101,-0.613936 -1.18313,-1.136322 0.13901,-0.247057 2.02168,0.901319 4.1822,0.585139 6.23691,-0.01038 0.63795,-0.343104 2.02205,-0.53036 2.46741,-1.184678 3.09543,2.027889 0.6098,1.779072 1.52687,3.629618 0.096,0.09522 0.36694,0.395503 0.28806,0.285666 -0.21148,-0.294465 -0.52735,-0.517379 -0.68791,-0.842424 -0.0836,-0.169293 0.28233,0.254611 0.44496,0.350564 0.61643,0.363719 1.25777,0.319401 1.9396,0.270729 1.5661,-0.320152 2.849,-1.311943 4.02129,-2.348151 0.0996,-0.100424 1.09507,-1.077603 1.15026,-1.037516 1.9827,1.440153 1.90767,0.910581 1.81951,2.115025 0.0123,0.129186 0.0145,0.259729 0.0369,0.387556 0.10098,0.57723 0.89978,1.412722 0.63408,1.061454 -0.53209,-0.703461 -1.11111,-1.132938 -0.26862,-0.449728 1.4689,0.742088 2.58654,0.08386 3.64422,-0.977338 1.2653,-1.627337 1.59352,-3.577708 1.42648,-5.582668 -0.14589,-0.692229 -0.1252,-1.080717 -0.84603,-1.254745 -0.2081,-2.235333 2.16877,-2.456602 2.37687,-0.221269 l 0,0 c 0.38754,0.702198 0.62874,1.379344 0.62696,2.201592 -0.002,2.332227 -0.47349,4.582523 -1.96514,6.446796 -1.55705,1.56631 -2.89809,2.277854 -5.1303,1.732448 -1.69839,-0.842376 -2.83036,-2.275071 -2.80219,-4.166211 -0.009,-0.10687 -0.12621,-0.364641 -0.0284,-0.32061 2.55475,1.149772 2.16125,0.705392 1.36324,1.393622 -0.14803,0.127667 -0.29526,0.256259 -0.44289,0.384389 -1.396,1.152748 -2.89044,2.251428 -4.66441,2.72903 -2.34895,0.367315 -4.32268,-0.03314 -5.26344,-2.650878 -0.10577,-0.816742 -0.0686,-1.517276 0.26545,-2.282864 0.0675,-0.154777 0.0775,-0.527388 0.22865,-0.452062 0.72284,0.360269 1.26308,1.006876 1.89462,1.510314 -0.24283,0.08097 -0.49687,0.280825 -0.71969,0.38859 -0.71493,0.345766 -1.47743,0.582822 -2.22598,0.841061 -2.33242,0.672497 -4.75289,1.059356 -7.12584,0.322852 -0.32654,-0.136037 -0.70338,-0.187144 -0.97962,-0.408111 -2.06077,-1.64843 -2.77395,-3.032026 -1.22296,-5.223911 1.76943,-1.837255 3.49858,-2.463395 6.0366,-2.583458 0.36513,0.01416 0.73285,-0.0032 1.09539,0.04247 1.85098,0.23322 3.90252,1.694774 3.43579,3.755308 -0.73553,1.542724 -1.85248,2.181056 -3.56623,2.120894 -1.66766,-0.388657 -3.252,-1.652285 -3.25647,-3.476133 0.77688,-2.157872 3.07138,-1.331799 2.2945,0.826072 z"
       inkscape:connector-curvature="0" />
    <path
       style="fill:#565248;fill-opacity:1;fill-rule:nonzero;stroke:none"
       id="path10062"
       d="m 66.082491,59.731119 c 49.485529,0.192949 98.988879,0.351261 148.553079,0.467714 55.05914,0.09667 27.01817,0.05332 84.12355,0.128723 30.18386,-0.624925 42.00299,1.17952 11.81913,1.804444 l 0,0 C 253.70846,62.10905 281.62705,62.12169 226.8224,62.09439 178.31874,62.06545 129.75897,61.957795 81.286266,61.993246 43.446575,62.797131 28.242782,60.535006 66.082491,59.731121 z"
       inkscape:connector-curvature="0" />
  </g>
</svg>
